<?xml version="1.0" encoding="UTF-8"?>
<svg version="1.1" xmlns="http://www.w3.org/2000/svg" width="80" height="106">
<path d="M0 0 C0.495 0.99 0.495 0.99 1 2 C2.32 1.34 3.64 0.68 5 0 C5.02312297 10.93496471 5.04091485 21.86992366 5.05181217 32.8049078 C5.0570411 37.88191018 5.06413892 42.95889589 5.07543945 48.03588867 C5.08626799 52.93120552 5.09227676 57.82650629 5.09487724 62.72183418 C5.09673155 64.59382951 5.10035228 66.46582391 5.10573006 68.33781242 C5.11294004 70.95040699 5.11399096 73.56293427 5.11352539 76.17553711 C5.11712067 76.95740387 5.12071594 77.73927063 5.12442017 78.54483032 C5.11405216 83.88594784 5.11405216 83.88594784 4 85 C1.34745553 85.17244584 -1.28166189 85.2839033 -3.9375 85.3515625 C-5.13040649 85.38629166 -5.13040649 85.38629166 -6.34741211 85.42172241 C-8.03199749 85.46942313 -9.71665444 85.51464964 -11.40136719 85.55761719 C-13.98919985 85.62471995 -16.57656256 85.70245289 -19.1640625 85.78125 C-20.79685747 85.82616267 -22.42966966 85.87045447 -24.0625 85.9140625 C-24.84165771 85.93796051 -25.62081543 85.96185852 -26.42358398 85.98648071 C-28.28188121 86.03017313 -30.14130268 86.02053957 -32 86 C-33.77490546 84.22509454 -33.23499973 81.62215098 -33.31640625 79.21484375 C-33.35830078 78.04501953 -33.40019531 76.87519531 -33.44335938 75.66992188 C-33.48267578 74.43822266 -33.52199219 73.20652344 -33.5625 71.9375 C-33.60568359 70.70193359 -33.64886719 69.46636719 -33.69335938 68.19335938 C-33.79984198 65.12902665 -33.90185424 62.06460927 -34 59 C-34.68707031 58.87882812 -35.37414063 58.75765625 -36.08203125 58.6328125 C-36.98308594 58.46523437 -37.88414063 58.29765625 -38.8125 58.125 C-39.70582031 57.96257812 -40.59914063 57.80015625 -41.51953125 57.6328125 C-44 57 -44 57 -47 55 C-47 54.34 -47 53.68 -47 53 C-46.34 53 -45.68 53 -45 53 C-44.34 51.02 -43.68 49.04 -43 47 C-44.65 48.98 -46.3 50.96 -48 53 C-51.52238004 51.69933317 -54.51494129 50.16259119 -57.625 48.0625 C-58.38039063 47.55847656 -59.13578125 47.05445313 -59.9140625 46.53515625 C-66.04175351 42.02545107 -68.26101711 35.85826374 -69.39453125 28.40625 C-69.78343002 19.30313796 -66.3353331 11.88998592 -60.3671875 5.1796875 C-59 4 -59 4 -57 4 C-57 3.34 -57 2.68 -57 2 C-40.1497603 -7.2166238 -17.09742023 -10.29694539 0 0 Z M-2 3 C-2 3.99 -2 4.98 -2 6 C-1.34 5.01 -0.68 4.02 0 3 C-0.66 3 -1.32 3 -2 3 Z " fill="#5431C6" transform="translate(71,17)"/>
<path d="M0 0 C0 0.99 0 1.98 0 3 C-0.66 3.33 -1.32 3.66 -2 4 C-2.10054688 4.56203125 -2.20109375 5.1240625 -2.3046875 5.703125 C-3.3374068 9.11457978 -5.7046483 11.24021979 -8.125 13.75 C-8.65343506 14.31001709 -9.18187012 14.87003418 -9.72631836 15.44702148 C-10.87338316 16.66194223 -12.02349525 17.87399143 -13.17626953 19.08349609 C-16.3243175 22.39168572 -19.44062909 25.72963257 -22.5625 29.0625 C-23.19115967 29.7318457 -23.81981934 30.40119141 -24.4675293 31.09082031 C-30.02893972 37.01472775 -35.52806667 42.99338712 -41 49 C-41.66 48.34 -42.32 47.68 -43 47 C-44.65 48.98 -46.3 50.96 -48 53 C-51.52238004 51.69933317 -54.51494129 50.16259119 -57.625 48.0625 C-58.38039063 47.55847656 -59.13578125 47.05445313 -59.9140625 46.53515625 C-66.04175351 42.02545107 -68.26101711 35.85826374 -69.39453125 28.40625 C-69.78343002 19.30313796 -66.3353331 11.88998592 -60.3671875 5.1796875 C-59 4 -59 4 -57 4 C-57 3.34 -57 2.68 -57 2 C-39.52519731 -7.55824281 -17.8706645 -9.5333663 0 0 Z " fill="#419B46" transform="translate(71,17)"/>
<path d="M0 0 C0.66 0.99 1.32 1.98 2 3 C0.57788956 4.52368976 -0.8442251 6.04737559 -2.26635742 7.57104492 C-3.52179788 8.91619503 -4.77716719 10.26141154 -6.0324707 11.60668945 C-9.24007311 15.04400452 -12.44862601 18.48041667 -15.66015625 21.9140625 C-22.81771432 29.56938368 -29.93590246 37.25832576 -37 45 C-37.66 43.68 -38.32 42.36 -39 41 C-38.26394531 40.14277344 -37.52789062 39.28554688 -36.76953125 38.40234375 C-29.55092981 29.96151938 -29.55092981 29.96151938 -23 21 C-24.65 21 -26.3 21 -28 21 C-26.51275021 16.24298781 -22.54280399 14.56578273 -18.5 12.1875 C-17.05078422 11.31073749 -15.60286672 10.43182547 -14.15625 9.55078125 C-13.44855469 9.12104004 -12.74085937 8.69129883 -12.01171875 8.24853516 C-7.88049009 5.6845663 -3.93312795 2.85529962 0 0 Z " fill="#F1F55D" transform="translate(67,21)"/>
<path d="M0 0 C0.66 0 1.32 0 2 0 C2 27.72 2 55.44 2 84 C-10.21 84 -22.42 84 -35 84 C-34.505 83.01 -34.505 83.01 -34 82 C-22.78 82 -11.56 82 0 82 C0 56.59 0 31.18 0 5 C-0.66 4.67 -1.32 4.34 -2 4 C-1.34 2.68 -0.68 1.36 0 0 Z " fill="#705BB8" transform="translate(74,17)"/>
<path d="M0 0 C2 1.375 2 1.375 4 3 C4 3.66 4 4.32 4 5 C1.86035156 6.63232422 1.86035156 6.63232422 -1.109375 8.5546875 C-2.17414062 9.25207031 -3.23890625 9.94945312 -4.3359375 10.66796875 C-5.47356504 11.40425386 -6.61158996 12.13992533 -7.75 12.875 C-9.95700583 14.30414758 -12.15905036 15.740198 -14.359375 17.1796875 C-15.34389648 17.81632324 -16.32841797 18.45295898 -17.34277344 19.10888672 C-19.84778282 20.89166903 -21.90395124 22.75920336 -24 25 C-22.35 25 -20.7 25 -19 25 C-19.66 26.32 -20.32 27.64 -21 29 C-21.33 28.34 -21.66 27.68 -22 27 C-23.98 27 -25.96 27 -28 27 C-27.6875 25.0625 -27.6875 25.0625 -27 23 C-26.01 22.67 -25.02 22.34 -24 22 C-23.67 20.02 -23.34 18.04 -23 16 C-22.4225 16.185625 -21.845 16.37125 -21.25 16.5625 C-18.67147222 17.0638804 -17.42416735 17.00045002 -15 16 C-13.8624787 13.91965706 -13.8624787 13.91965706 -13.25 11.4375 C-13.00765625 10.61121094 -12.7653125 9.78492188 -12.515625 8.93359375 C-12.34546875 8.29550781 -12.1753125 7.65742188 -12 7 C-11.39285156 7.21527344 -10.78570312 7.43054688 -10.16015625 7.65234375 C-9.44730469 7.76707031 -8.73445313 7.88179687 -8 8 C-6.29220027 6.37550757 -4.62449243 4.70779973 -3 3 C-2.01 3 -1.02 3 0 3 C0 2.01 0 1.02 0 0 Z " fill="#3E7E27" transform="translate(63,17)"/>
<path d="M0 0 C0 0.99 0 1.98 0 3 C0.04125 4.093125 0.0825 5.18625 0.125 6.3125 C0.00131971 9.96106858 -0.68106019 12.62021674 -2 16 C-1.34 16 -0.68 16 0 16 C0 19.33333333 0 22.66666667 0 26 C0.66 26.99 1.32 27.98 2 29 C5.08365871 29.2502157 5.08365871 29.2502157 8 29 C8 31.33333333 8 33.66666667 8 36 C8.66 36.33 9.32 36.66 10 37 C9.67 37.66 9.34 38.32 9 39 C4.0928981 36.92391843 0.22003918 34.32031992 -2.2734375 29.578125 C-5.64858612 21.10434761 -6.38443275 14.0039493 -3.0625 5.4375 C-1.2320442 1.2320442 -1.2320442 1.2320442 0 0 Z " fill="#69B36D" transform="translate(7,27)"/>
<path d="M0 0 C0 0.33 0 0.66 0 1 C-9.9 1.33 -19.8 1.66 -30 2 C-30 2.66 -30 3.32 -30 4 C-30.886875 4.433125 -31.77375 4.86625 -32.6875 5.3125 C-35.9510585 6.92003881 -35.9510585 6.92003881 -38.75 8.6875 C-41 10 -41 10 -43 10 C-43.33 10.99 -43.66 11.98 -44 13 C-44.99 12.34 -45.98 11.68 -47 11 C-48.65 12.32 -50.3 13.64 -52 15 C-50.95125002 12.37812506 -50.35068687 11.20628639 -47.875 9.75 C-47.25625 9.5025 -46.6375 9.255 -46 9 C-46 8.34 -46 7.68 -46 7 C-31.41129382 -0.97962634 -16.44170999 -1.99015112 0 0 Z " fill="#78AE7C" transform="translate(60,12)"/>
<path d="M0 0 C-0.71285156 0.70125 -1.42570312 1.4025 -2.16015625 2.125 C-7.16481275 7.07453529 -12.05670963 12.02319332 -16.5625 17.44140625 C-18 19 -18 19 -21 21 C-21.63769531 19.19335938 -21.63769531 19.19335938 -22 17 C-20.32426895 14.64684576 -18.68531495 12.61780122 -16.75 10.5 C-15.74396486 9.36531586 -14.73873568 8.22991655 -13.734375 7.09375 C-13.25685791 6.56160889 -12.77934082 6.02946777 -12.28735352 5.48120117 C-11.21892945 4.2518955 -10.2288362 2.95502973 -9.26171875 1.64453125 C-8 0 -8 0 -6.0625 -0.8125 C-3.79494116 -1.01864171 -2.18000502 -0.59620179 0 0 Z " fill="#F3EE80" transform="translate(50,45)"/>
<path d="M0 0 C0.75 1.75 0.75 1.75 1 4 C-0.6875 6.25 -0.6875 6.25 -3 8 C-4.32 8 -5.64 8 -7 8 C-7.33 8.66 -7.66 9.32 -8 10 C-8.66 9.34 -9.32 8.68 -10 8 C-9.67 7.34 -9.34 6.68 -9 6 C-10.65 6 -12.3 6 -14 6 C-12.98949988 3.33595424 -12.02766415 2.02292172 -9.8125 0.1875 C-6.17938639 -1.3464813 -3.79675502 -0.81890795 0 0 Z " fill="#F9F865" transform="translate(53,36)"/>
<path d="M0 0 C0.33 0.66 0.66 1.32 1 2 C0.22265625 3.7265625 0.22265625 3.7265625 -0.9375 5.625 C-1.618125 6.73875 -2.29875 7.8525 -3 9 C-1.35 9 0.3 9 2 9 C2 10.32 2 11.64 2 13 C-1.89114901 14.01911045 -3.60596507 14.16782969 -7.375 12.5625 C-8.24125 12.046875 -9.1075 11.53125 -10 11 C-10 10.34 -10 9.68 -10 9 C-9.34 9 -8.68 9 -8 9 C-7.79375 8.443125 -7.5875 7.88625 -7.375 7.3125 C-5.44999226 4.07498698 -2.96149098 2.31768859 0 0 Z " fill="#6743DD" transform="translate(34,61)"/>
<path d="M0 0 C1.65 0 3.3 0 5 0 C2.50573612 4.45221846 -0.51452386 8.33706795 -3.6875 12.3125 C-4.45416992 13.28026367 -4.45416992 13.28026367 -5.23632812 14.26757812 C-6.48826884 15.8471295 -7.74377514 17.42385369 -9 19 C-9.99 18.01 -10.98 17.02 -12 16 C-11.1875 14.0625 -11.1875 14.0625 -10 12 C-9.01 11.67 -8.02 11.34 -7 11 C-6.26676204 8.98491642 -6.26676204 8.98491642 -6 7 C-5.38125 6.95875 -4.7625 6.9175 -4.125 6.875 C-3.42375 6.58625 -2.7225 6.2975 -2 6 C-0.6954344 3.00384054 -0.6954344 3.00384054 0 0 Z " fill="#5B9B35" transform="translate(36,46)"/>
<path d="M0 0 C1.32 0.33 2.64 0.66 4 1 C3.67 2.65 3.34 4.3 3 6 C2.1028125 6.061875 2.1028125 6.061875 1.1875 6.125 C-1.34342766 6.85640052 -1.34342766 6.85640052 -2.5 10 C-4 13 -4 13 -6.1875 13.875 C-7.0846875 13.936875 -7.0846875 13.936875 -8 14 C-7.84036991 7.61479646 -4.21875117 4.33991635 0 0 Z " fill="#6340C8" transform="translate(44,50)"/>
<path d="M0 0 C4.12751449 0.60698743 7.3321148 2.03810791 11 4 C11 4.99 11 5.98 11 7 C9.1875 7.6875 9.1875 7.6875 7 8 C5.25 6.5625 5.25 6.5625 4 5 C3.67 5.66 3.34 6.32 3 7 C0.69034152 8.05352843 -1.6429774 9.05719096 -4 10 C-4.1875 7.625 -4.1875 7.625 -4 5 C-3.01 4.34 -2.02 3.68 -1 3 C-0.67 2.01 -0.34 1.02 0 0 Z " fill="#528A55" transform="translate(60,13)"/>
<path d="M0 0 C1.32 0.33 2.64 0.66 4 1 C3.14535156 1.55429687 2.29070313 2.10859375 1.41015625 2.6796875 C0.29411027 3.41121343 -0.8217664 4.14299771 -1.9375 4.875 C-3.03964844 5.59429687 -4.14179687 6.31359375 -5.27734375 7.0546875 C-8.05381966 8.71783283 -8.05381966 8.71783283 -9 11 C-7.35 11 -5.7 11 -4 11 C-4.66 12.32 -5.32 13.64 -6 15 C-6.33 14.34 -6.66 13.68 -7 13 C-8.98 13 -10.96 13 -13 13 C-12.6875 11.0625 -12.6875 11.0625 -12 9 C-11.01 8.67 -10.02 8.34 -9 8 C-8.67 6.02 -8.34 4.04 -8 2 C-7.4225 2.185625 -6.845 2.37125 -6.25 2.5625 C-3.79307475 3.04023546 -2.35602466 2.75729364 0 2 C0 1.34 0 0.68 0 0 Z " fill="#50902F" transform="translate(48,31)"/>
<path d="M0 0 C1.65128906 -0.01836914 1.65128906 -0.01836914 3.3359375 -0.03710938 C4.90988281 -0.04000977 4.90988281 -0.04000977 6.515625 -0.04296875 C7.47243164 -0.04707764 8.42923828 -0.05118652 9.41503906 -0.05541992 C11.75 0.1875 11.75 0.1875 13.75 2.1875 C12.4375 3.6875 12.4375 3.6875 10.75 5.1875 C9.76 5.1875 8.77 5.1875 7.75 5.1875 C7.75 4.1975 7.75 3.2075 7.75 2.1875 C7.15832031 2.28289063 6.56664063 2.37828125 5.95703125 2.4765625 C1.30619775 3.12904485 -1.97314374 3.53287279 -6.25 1.1875 C-6.25 1.8475 -6.25 2.5075 -6.25 3.1875 C-10.21 2.8575 -14.17 2.5275 -18.25 2.1875 C-18.25 1.8575 -18.25 1.5275 -18.25 1.1875 C-12.12611565 0.05187402 -6.21064536 0.00368803 0 0 Z " fill="#317A37" transform="translate(48.25,12.8125)"/>
<path d="M0 0 C0.97110486 3.02121511 1.13617383 5.00463263 0 8 C-0.99 8.495 -0.99 8.495 -2 9 C-1.67 9.99 -1.34 10.98 -1 12 C-7.75 13.125 -7.75 13.125 -10 12 C-8.52149287 10.18696196 -7.04217625 8.37458402 -5.5625 6.5625 C-4.32693359 5.04849609 -4.32693359 5.04849609 -3.06640625 3.50390625 C-1 1 -1 1 0 0 Z " fill="#5235A0" transform="translate(73,18)"/>
<path d="M0 0 C1.134375 0.020625 2.26875 0.04125 3.4375 0.0625 C3.4375 2.39583333 3.4375 4.72916667 3.4375 7.0625 C4.0975 7.3925 4.7575 7.7225 5.4375 8.0625 C5.1075 8.7225 4.7775 9.3825 4.4375 10.0625 C-2.96479885 6.62571839 -2.96479885 6.62571839 -4.375 2.9375 C-4.436875 2.31875 -4.49875 1.7 -4.5625 1.0625 C-3.5625 0.0625 -3.5625 0.0625 0 0 Z " fill="#50AB54" transform="translate(11.5625,55.9375)"/>
<path d="M0 0 C0.66 0.99 1.32 1.98 2 3 C-1.63 6.96 -5.26 10.92 -9 15 C-9.33 14.01 -9.66 13.02 -10 12 C-9.67 11.34 -9.34 10.68 -9 10 C-8.01 10 -7.02 10 -6 10 C-6.185625 8.63875 -6.185625 8.63875 -6.375 7.25 C-6.25125 6.1775 -6.1275 5.105 -6 4 C-3 1.625 -3 1.625 0 0 Z " fill="#EBEB7A" transform="translate(67,21)"/>
<path d="M0 0 C0.33 0 0.66 0 1 0 C1.16276042 2.01822917 1.32552083 4.03645833 1.48828125 6.0546875 C1.87393036 8.39519216 1.87393036 8.39519216 5 10 C4.7215625 10.9590625 4.7215625 10.9590625 4.4375 11.9375 C4.293125 12.618125 4.14875 13.29875 4 14 C4.33 14.33 4.66 14.66 5 15 C5.36760731 17.32817964 5.70241581 19.6618385 6 22 C2.55346265 20.27673132 2.05222858 16.56399125 0.8203125 13.078125 C-0.35691702 8.66071136 -0.35388415 4.53168315 0 0 Z " fill="#94CE96" transform="translate(2,38)"/>
<path d="M0 0 C1.32 0.33 2.64 0.66 4 1 C2.4169423 5.2742558 -0.50568404 7.26531794 -4 10 C-4.8125 8.375 -4.8125 8.375 -5 6 C-3.53181864 3.75390165 -1.84147142 1.97621323 0 0 Z " fill="#EBEC94" transform="translate(33,56)"/>
<path d="M0 0 C0 0.66 0 1.32 0 2 C-0.66 2 -1.32 2 -2 2 C-1.67 2.99 -1.34 3.98 -1 5 C-1.66 5 -2.32 5 -3 5 C-3.33 5.99 -3.66 6.98 -4 8 C-4.99 7.34 -5.98 6.68 -7 6 C-8.65 7.32 -10.3 8.64 -12 10 C-10.95125002 7.37812506 -10.35068687 6.20628639 -7.875 4.75 C-7.25625 4.5025 -6.6375 4.255 -6 4 C-6 3.34 -6 2.68 -6 2 C-2.25 0 -2.25 0 0 0 Z " fill="#89C08B" transform="translate(20,17)"/>
<path d="M0 0 C0 2.8822386 -0.37690576 4.41903257 -1.375 7.0625 C-1.63023438 7.75472656 -1.88546875 8.44695313 -2.1484375 9.16015625 C-3 11 -3 11 -5 13 C-5.99 12.01 -6.98 11.02 -8 10 C-5.36 6.7 -2.72 3.4 0 0 Z " fill="#E6EF6F" transform="translate(42,45)"/>
<path d="M0 0 C-1.65 2.64 -3.3 5.28 -5 8 C-5.99 7.34 -6.98 6.68 -8 6 C-7.39816251 3.97954558 -6.72693904 1.97888961 -6 0 C-4 -1 -4 -1 0 0 Z " fill="#F7F95A" transform="translate(51,38)"/>
<path d="M0 0 C0.33 0 0.66 0 1 0 C1.20086443 3.71599191 1.1519437 4.77208445 -1 8 C-4.125 8.1875 -4.125 8.1875 -7 8 C-6.02133662 6.85373678 -5.04205413 5.70800212 -4.0625 4.5625 C-3.51722656 3.92441406 -2.97195312 3.28632812 -2.41015625 2.62890625 C-1.63204305 1.73008851 -0.84063472 0.84063472 0 0 Z " fill="#5737A2" transform="translate(62,31)"/>
<path d="M0 0 C-0.33 0.99 -0.66 1.98 -1 3 C-1.66 3 -2.32 3 -3 3 C-3.33 4.32 -3.66 5.64 -4 7 C-5.65 7 -7.3 7 -9 7 C-7.4576387 2.93377477 -4.5679954 0 0 0 Z " fill="#E3F465" transform="translate(48,35)"/>
<path d="M0 0 C1.65 0.33 3.3 0.66 5 1 C5 1.99 5 2.98 5 4 C3.68 4.33 2.36 4.66 1 5 C1 5.66 1 6.32 1 7 C0.01 6.67 -0.98 6.34 -2 6 C-1.34 4.02 -0.68 2.04 0 0 Z " fill="#328336" transform="translate(51,24)"/>
<path d="M0 0 C0.33 0.66 0.66 1.32 1 2 C1.99 2 2.98 2 4 2 C4 2.66 4 3.32 4 4 C4.66 4.33 5.32 4.66 6 5 C5.67 5.66 5.34 6.32 5 7 C1.63408134 5.55746343 -0.51047079 3.66735273 -3 1 C-2.01 0.67 -1.02 0.34 0 0 Z " fill="#78BA7E" transform="translate(11,59)"/>
<path d="M0 0 C0.98120464 3.05263664 0.98120464 4.94736336 0 8 C-1.65 7.67 -3.3 7.34 -5 7 C-3.47793991 4.37098712 -2.15634036 2.15634036 0 0 Z " fill="#785FBF" transform="translate(73,18)"/>
<path d="M0 0 C1.65 0 3.3 0 5 0 C2.375 4.875 2.375 4.875 -1 6 C-0.67 4.02 -0.34 2.04 0 0 Z " fill="#519235" transform="translate(36,46)"/>
<path d="M0 0 C0 1.65 0 3.3 0 5 C-0.99 5 -1.98 5 -3 5 C-3.33 5.66 -3.66 6.32 -4 7 C-4 6.01 -4 5.02 -4 4 C-4.66 3.67 -5.32 3.34 -6 3 C-2.25 0 -2.25 0 0 0 Z " fill="#E6F14D" transform="translate(61,26)"/>
<path d="M0 0 C0.33 0.99 0.66 1.98 1 3 C0.01 4.485 0.01 4.485 -1 6 C-0.34 6 0.32 6 1 6 C1 6.66 1 7.32 1 8 C-1.475 7.01 -1.475 7.01 -4 6 C-4 5.34 -4 4.68 -4 4 C-3.34 4 -2.68 4 -2 4 C-1.34 2.68 -0.68 1.36 0 0 Z " fill="#A78FDF" transform="translate(28,66)"/>
<path d="M0 0 C1.32 0 2.64 0 4 0 C3.67 1.32 3.34 2.64 3 4 C1.68 4.33 0.36 4.66 -1 5 C-0.67 3.35 -0.34 1.7 0 0 Z " fill="#6239E9" transform="translate(37,59)"/>
<path d="M0 0 C2 1.375 2 1.375 4 3 C4 3.66 4 4.32 4 5 C2.35 5.33 0.7 5.66 -1 6 C-0.67 4.02 -0.34 2.04 0 0 Z " fill="#317730" transform="translate(63,17)"/>
<path d="M0 0 C0.33 1.32 0.66 2.64 1 4 C0.34 4 -0.32 4 -1 4 C-1 4.66 -1 5.32 -1 6 C-2.32 6.33 -3.64 6.66 -5 7 C-3.47793991 4.37098712 -2.15634036 2.15634036 0 0 Z " fill="#6B4E9F" transform="translate(54,39)"/>
<path d="M0 0 C0.99 0.33 1.98 0.66 3 1 C3 1.99 3 2.98 3 4 C1.35 4.66 -0.3 5.32 -2 6 C-1.49396008 3.83125748 -1.00016187 2.00032373 0 0 Z " fill="#4AA151" transform="translate(8,27)"/>
<path d="M0 0 C0.66 0.33 1.32 0.66 2 1 C1.67 1.99 1.34 2.98 1 4 C0.65772583 5.33106622 0.32248257 6.66400079 0 8 C-0.99 7.01 -1.98 6.02 -3 5 C-1.125 1.125 -1.125 1.125 0 0 Z " fill="#5EAA60" transform="translate(27,57)"/>
</svg>
